<?xml version="1.0" encoding="utf-8"?>
<!-- Generator: Adobe Illustrator 16.0.0, SVG Export Plug-In . SVG Version: 6.00 Build 0)  -->
<!DOCTYPE svg PUBLIC "-//W3C//DTD SVG 1.1//EN" "http://www.w3.org/Graphics/SVG/1.1/DTD/svg11.dtd">
<svg version="1.1" id="Layer_1" xmlns="http://www.w3.org/2000/svg" xmlns:xlink="http://www.w3.org/1999/xlink" x="0px" y="0px"
	 width="385px" height="385px" viewBox="0 0 385 385" fill-opacity="0.2" enable-background="new 0 0 385 385" xml:space="preserve">
<g>
	<path d="M192.5,337.416c-47.584,0-68.551,8.281-104.483,24.152C52.838,377.105,30.694,384.5,0,384.5v0.5h13.284
		c24.498-1.896,45.084-9.244,75.137-22.518c35.806-15.814,56.696-24.066,104.079-24.066c47.381,0,68.272,8.252,104.079,24.066
		c30.053,13.273,50.639,20.622,75.137,22.518H385v-0.5c-30.694,0-52.838-7.395-88.017-22.932
		C261.05,345.697,240.083,337.416,192.5,337.416z"/>
	<path d="M192.5,346.355c-47.584,0-68.551,8.281-104.483,24.152c-13.708,6.055-25.434,10.866-36.46,14.492h3.145
		c10.237-3.515,21.148-8.025,33.72-13.578c35.806-15.814,56.696-24.066,104.079-24.066c47.381,0,68.272,8.252,104.079,24.066
		c12.572,5.553,23.482,10.063,33.72,13.578h3.145c-11.026-3.626-22.752-8.438-36.46-14.492
		C261.05,354.637,240.083,346.355,192.5,346.355z"/>
	<path d="M192.5,355.295c-47.584,0-68.551,8.281-104.483,24.152c-4.491,1.983-8.769,3.833-12.88,5.553h2.574
		c3.444-1.459,7.002-3.001,10.71-4.639c35.806-15.814,56.696-24.066,104.079-24.066c47.381,0,68.272,8.252,104.079,24.066
		c3.708,1.638,7.266,3.18,10.71,4.639h2.574c-4.111-1.72-8.389-3.569-12.88-5.553C261.05,363.576,240.083,355.295,192.5,355.295z"/>
	<path d="M95.741,385h2.515c30.178-13.006,51.362-19.766,94.244-19.766c42.88,0,64.065,6.76,94.244,19.766h2.514
		c-31.442-13.657-52.688-20.766-96.758-20.766S127.184,371.343,95.741,385z"/>
	<path d="M117.75,385h2.974c20.331-7.146,40.154-10.826,71.776-10.826c31.62,0,51.444,3.681,71.776,10.826h2.973
		c-21.371-7.803-41.604-11.826-74.749-11.826C159.354,373.174,139.121,377.197,117.75,385z"/>
	<path d="M151.31,385h7.046c9.938-1.251,21.022-1.887,34.145-1.887c13.121,0,24.206,0.636,34.144,1.887h7.046
		c-11.722-1.914-24.895-2.887-41.189-2.887C176.204,382.113,163.032,383.086,151.31,385z"/>
	<path d="M192.5,328.463c-47.584,0-68.551,8.281-104.483,24.152C52.838,368.152,30.694,375.547,0,375.547v1
		c30.874,0,53.111-7.422,88.421-23.018c35.806-15.814,56.696-24.066,104.079-24.066c47.381,0,68.272,8.252,104.079,24.066
		c35.31,15.596,57.547,23.018,88.421,23.018v-1c-30.694,0-52.838-7.395-88.017-22.932C261.05,336.744,240.083,328.463,192.5,328.463
		z"/>
	<path d="M192.5,319.508c-47.58,0-68.548,8.282-104.483,24.154C52.841,359.198,30.698,366.592,0,366.592v1
		c30.878,0,53.114-7.422,88.421-23.016c35.809-15.815,56.701-24.068,104.079-24.068c47.377,0,68.27,8.253,104.079,24.068
		c35.307,15.594,57.543,23.016,88.421,23.016v-1c-30.698,0-52.841-7.394-88.017-22.93C261.047,327.79,240.078,319.508,192.5,319.508
		z"/>
	<path d="M192.5,310.555c-47.58,0-68.548,8.282-104.483,24.154C52.841,350.245,30.698,357.639,0,357.639v1
		c30.878,0,53.114-7.422,88.421-23.016c35.809-15.815,56.701-24.068,104.079-24.068c47.377,0,68.27,8.253,104.079,24.068
		c35.307,15.594,57.543,23.016,88.421,23.016v-1c-30.698,0-52.841-7.394-88.017-22.93
		C261.047,318.837,240.078,310.555,192.5,310.555z"/>
	<path d="M192.5,301.602c-47.58,0-68.548,8.282-104.483,24.154C52.841,341.292,30.698,348.686,0,348.686v1
		c30.878,0,53.114-7.422,88.421-23.016c35.809-15.815,56.701-24.068,104.079-24.068c47.377,0,68.27,8.253,104.079,24.068
		c35.307,15.594,57.543,23.016,88.421,23.016v-1c-30.698,0-52.841-7.394-88.017-22.93
		C261.047,309.884,240.078,301.602,192.5,301.602z"/>
	<path d="M192.5,292.648c-47.584,0-68.551,8.281-104.483,24.152C52.838,332.338,30.694,339.732,0,339.732v1
		c30.874,0,53.111-7.422,88.421-23.018c35.806-15.814,56.696-24.066,104.079-24.066c47.381,0,68.272,8.252,104.079,24.066
		c35.31,15.596,57.547,23.018,88.421,23.018v-1c-30.694,0-52.838-7.395-88.017-22.932C261.05,300.93,240.083,292.648,192.5,292.648z
		"/>
	<path d="M192.5,283.695c-47.584,0-68.551,8.281-104.483,24.152C52.838,323.385,30.694,330.779,0,330.779v1
		c30.874,0,53.111-7.422,88.421-23.018c35.806-15.814,56.696-24.066,104.079-24.066c47.381,0,68.272,8.252,104.079,24.066
		c35.31,15.596,57.547,23.018,88.421,23.018v-1c-30.694,0-52.838-7.395-88.017-22.932C261.05,291.977,240.083,283.695,192.5,283.695
		z"/>
	<path d="M192.5,274.74c-47.58,0-68.548,8.282-104.483,24.154C52.841,314.431,30.698,321.824,0,321.824v1
		c30.878,0,53.114-7.422,88.421-23.016c35.809-15.815,56.701-24.068,104.079-24.068c47.377,0,68.27,8.253,104.079,24.068
		c35.307,15.594,57.543,23.016,88.421,23.016v-1c-30.698,0-52.841-7.394-88.017-22.93C261.047,283.022,240.078,274.74,192.5,274.74z
		"/>
	<path d="M192.5,265.787c-47.58,0-68.548,8.282-104.483,24.154C52.841,305.478,30.698,312.871,0,312.871v1
		c30.878,0,53.114-7.422,88.421-23.016c35.809-15.815,56.701-24.068,104.079-24.068c47.377,0,68.27,8.253,104.079,24.068
		c35.307,15.594,57.543,23.016,88.421,23.016v-1c-30.698,0-52.841-7.394-88.017-22.93
		C261.047,274.069,240.078,265.787,192.5,265.787z"/>
	<path d="M192.5,256.834c-47.58,0-68.548,8.282-104.483,24.154C52.841,296.524,30.698,303.918,0,303.918v1
		c30.878,0,53.114-7.422,88.421-23.016c35.809-15.815,56.701-24.068,104.079-24.068c47.377,0,68.27,8.253,104.079,24.068
		c35.307,15.594,57.543,23.016,88.421,23.016v-1c-30.698,0-52.841-7.394-88.017-22.93
		C261.047,265.116,240.078,256.834,192.5,256.834z"/>
	<path d="M192.5,247.881c-47.584,0-68.551,8.281-104.483,24.152C52.838,287.57,30.694,294.965,0,294.965v1
		c30.874,0,53.111-7.422,88.421-23.018c35.806-15.814,56.696-24.066,104.079-24.066c47.381,0,68.272,8.252,104.079,24.066
		c35.31,15.596,57.547,23.018,88.421,23.018v-1c-30.694,0-52.838-7.395-88.017-22.932C261.05,256.162,240.083,247.881,192.5,247.881
		z"/>
	<path d="M192.5,238.928c-47.584,0-68.551,8.281-104.483,24.152C52.838,278.617,30.694,286.012,0,286.012v1
		c30.874,0,53.111-7.422,88.421-23.018c35.806-15.814,56.696-24.066,104.079-24.066c47.381,0,68.272,8.252,104.079,24.066
		c35.31,15.596,57.547,23.018,88.421,23.018v-1c-30.694,0-52.838-7.395-88.017-22.932C261.05,247.209,240.083,238.928,192.5,238.928
		z"/>
	<path d="M192.5,229.975c-47.584,0-68.551,8.281-104.483,24.152C52.838,269.664,30.694,277.059,0,277.059v1
		c30.874,0,53.111-7.422,88.421-23.018c35.806-15.814,56.696-24.066,104.079-24.066c47.381,0,68.272,8.252,104.079,24.066
		c35.31,15.596,57.547,23.018,88.421,23.018v-1c-30.694,0-52.838-7.395-88.017-22.932C261.05,238.256,240.083,229.975,192.5,229.975
		z"/>
	<path d="M192.5,221.02c-47.58,0-68.548,8.282-104.483,24.154C52.841,260.71,30.698,268.104,0,268.104v1
		c30.878,0,53.114-7.422,88.421-23.016c35.809-15.815,56.701-24.068,104.079-24.068c47.377,0,68.27,8.253,104.079,24.068
		c35.307,15.594,57.543,23.016,88.421,23.016v-1c-30.698,0-52.841-7.394-88.017-22.93C261.047,229.302,240.078,221.02,192.5,221.02z
		"/>
	<path d="M192.5,212.066c-47.58,0-68.548,8.282-104.483,24.154C52.841,251.757,30.698,259.15,0,259.15v1
		c30.878,0,53.114-7.422,88.421-23.016c35.809-15.815,56.701-24.068,104.079-24.068c47.377,0,68.27,8.253,104.079,24.068
		c35.307,15.594,57.543,23.016,88.421,23.016v-1c-30.698,0-52.841-7.394-88.017-22.93
		C261.047,220.349,240.078,212.066,192.5,212.066z"/>
	<path d="M192.5,203.113c-47.584,0-68.551,8.281-104.483,24.152C52.838,242.803,30.694,250.197,0,250.197v1
		c30.874,0,53.111-7.422,88.421-23.018c35.806-15.814,56.696-24.066,104.079-24.066c47.381,0,68.272,8.252,104.079,24.066
		c35.31,15.596,57.547,23.018,88.421,23.018v-1c-30.694,0-52.838-7.395-88.017-22.932C261.05,211.395,240.083,203.113,192.5,203.113
		z"/>
	<path d="M192.5,194.16c-47.584,0-68.551,8.281-104.483,24.152C52.838,233.85,30.694,241.244,0,241.244v1
		c30.874,0,53.111-7.422,88.421-23.018c35.806-15.814,56.696-24.066,104.079-24.066c47.381,0,68.272,8.252,104.079,24.066
		c35.31,15.596,57.547,23.018,88.421,23.018v-1c-30.694,0-52.838-7.395-88.017-22.932C261.05,202.441,240.083,194.16,192.5,194.16z"
		/>
	<path d="M192.5,185.206c-47.582,0-68.549,8.282-104.483,24.153C52.838,224.896,30.694,232.291,0,232.291v1
		c30.874,0,53.111-7.422,88.421-23.018c35.807-15.814,56.698-24.067,104.079-24.067c47.379,0,68.271,8.253,104.079,24.067
		c35.31,15.596,57.547,23.018,88.421,23.018v-1c-30.694,0-52.838-7.395-88.017-22.932
		C261.048,193.488,240.081,185.206,192.5,185.206z"/>
	<path d="M192.5,176.253c-47.582,0-68.549,8.282-104.483,24.153C52.841,215.942,30.698,223.336,0,223.336v1
		c30.878,0,53.114-7.422,88.421-23.016c35.807-15.814,56.698-24.067,104.079-24.067c47.379,0,68.271,8.253,104.079,24.067
		c35.307,15.594,57.543,23.016,88.421,23.016v-1c-30.698,0-52.841-7.394-88.017-22.93
		C261.048,184.535,240.081,176.253,192.5,176.253z"/>
	<path d="M192.5,167.299c-47.58,0-68.548,8.282-104.483,24.154C52.841,206.989,30.698,214.383,0,214.383v1
		c30.878,0,53.114-7.422,88.421-23.016c35.809-15.815,56.701-24.068,104.079-24.068c47.377,0,68.27,8.253,104.079,24.068
		c35.307,15.594,57.543,23.016,88.421,23.016v-1c-30.698,0-52.841-7.394-88.017-22.93
		C261.047,175.581,240.078,167.299,192.5,167.299z"/>
	<path d="M192.5,158.346c-47.582,0-68.549,8.282-104.483,24.153C52.842,198.035,30.699,205.43,0,205.43v1
		c30.879,0,53.115-7.422,88.421-23.017c35.807-15.814,56.698-24.067,104.079-24.067c47.379,0,68.271,8.253,104.079,24.067
		c35.306,15.595,57.542,23.017,88.421,23.017v-1c-30.699,0-52.842-7.395-88.017-22.931
		C261.048,166.628,240.081,158.346,192.5,158.346z"/>
	<path d="M192.5,149.393c-47.584,0-68.551,8.281-104.483,24.152C52.838,189.082,30.694,196.477,0,196.477v1
		c30.874,0,53.111-7.422,88.421-23.018c35.806-15.814,56.696-24.066,104.079-24.066c47.381,0,68.272,8.252,104.079,24.066
		c35.31,15.596,57.547,23.018,88.421,23.018v-1c-30.694,0-52.838-7.395-88.017-22.932C261.05,157.674,240.083,149.393,192.5,149.393
		z"/>
	<path d="M192.5,140.439c-47.584,0-68.551,8.281-104.483,24.152C52.838,180.129,30.694,187.523,0,187.523v1
		c30.874,0,53.111-7.422,88.421-23.018c35.806-15.814,56.696-24.066,104.079-24.066c47.381,0,68.272,8.252,104.079,24.066
		c35.31,15.596,57.547,23.018,88.421,23.018v-1c-30.694,0-52.838-7.395-88.017-22.932C261.05,148.721,240.083,140.439,192.5,140.439
		z"/>
	<path d="M192.5,131.485c-47.582,0-68.549,8.282-104.483,24.153C52.84,171.175,30.696,178.569,0,178.569v1
		c30.876,0,53.113-7.422,88.421-23.017c35.807-15.814,56.698-24.067,104.079-24.067c47.379,0,68.271,8.253,104.079,24.067
		c35.308,15.595,57.545,23.017,88.421,23.017v-1c-30.696,0-52.84-7.395-88.017-22.931
		C261.048,139.768,240.081,131.485,192.5,131.485z"/>
	<path d="M192.5,122.531c-47.58,0-68.548,8.282-104.483,24.154C52.841,162.222,30.698,169.615,0,169.615v1
		c30.878,0,53.114-7.422,88.421-23.016c35.809-15.815,56.701-24.068,104.079-24.068c47.377,0,68.27,8.253,104.079,24.068
		c35.307,15.594,57.543,23.016,88.421,23.016v-1c-30.698,0-52.841-7.394-88.017-22.93
		C261.047,130.813,240.078,122.531,192.5,122.531z"/>
	<path d="M192.5,113.578c-47.582,0-68.549,8.282-104.483,24.153C52.84,153.268,30.696,160.662,0,160.662v1
		c30.876,0,53.113-7.422,88.421-23.017c35.807-15.814,56.698-24.067,104.079-24.067c47.379,0,68.271,8.253,104.079,24.067
		c35.308,15.595,57.545,23.017,88.421,23.017v-1c-30.696,0-52.84-7.395-88.017-22.931C261.048,121.86,240.081,113.578,192.5,113.578
		z"/>
	<path d="M192.5,104.625c-47.582,0-68.549,8.282-104.483,24.153C52.84,144.314,30.696,151.709,0,151.709v1
		c30.876,0,53.113-7.422,88.421-23.017c35.807-15.814,56.698-24.067,104.079-24.067c47.379,0,68.271,8.253,104.079,24.067
		c35.308,15.595,57.545,23.017,88.421,23.017v-1c-30.696,0-52.84-7.395-88.017-22.931
		C261.048,112.907,240.081,104.625,192.5,104.625z"/>
	<path d="M192.5,95.672c-47.584,0-68.551,8.281-104.483,24.152C52.838,135.361,30.694,142.756,0,142.756v1
		c30.874,0,53.111-7.422,88.421-23.018c35.806-15.814,56.696-24.066,104.079-24.066c47.381,0,68.272,8.252,104.079,24.066
		c35.31,15.596,57.547,23.018,88.421,23.018v-1c-30.694,0-52.838-7.395-88.017-22.932C261.05,103.953,240.083,95.672,192.5,95.672z"
		/>
	<path d="M192.5,86.718c-47.582,0-68.549,8.282-104.483,24.153C52.84,126.407,30.696,133.802,0,133.802v1
		c30.876,0,53.113-7.422,88.421-23.017c35.807-15.814,56.698-24.067,104.079-24.067c47.379,0,68.271,8.253,104.079,24.067
		c35.308,15.595,57.545,23.017,88.421,23.017v-1c-30.696,0-52.84-7.395-88.017-22.931C261.048,95,240.081,86.718,192.5,86.718z"/>
	<path d="M192.5,77.764c-47.58,0-68.548,8.282-104.483,24.154C52.841,117.454,30.698,124.848,0,124.848v1
		c30.878,0,53.114-7.422,88.421-23.016c35.809-15.815,56.701-24.068,104.079-24.068c47.377,0,68.27,8.253,104.079,24.068
		c35.307,15.594,57.543,23.016,88.421,23.016v-1c-30.698,0-52.841-7.394-88.017-22.93C261.047,86.046,240.078,77.764,192.5,77.764z"
		/>
	<path d="M192.5,68.811c-47.58,0-68.548,8.282-104.483,24.154C52.841,108.501,30.698,115.895,0,115.895v1
		c30.878,0,53.114-7.422,88.421-23.016c35.809-15.815,56.701-24.068,104.079-24.068c47.377,0,68.27,8.253,104.079,24.068
		c35.307,15.594,57.543,23.016,88.421,23.016v-1c-30.698,0-52.841-7.394-88.017-22.93C261.047,77.093,240.078,68.811,192.5,68.811z"
		/>
	<path d="M192.5,59.857c-47.582,0-68.549,8.282-104.483,24.153C52.84,99.547,30.696,106.941,0,106.941v1
		c30.876,0,53.113-7.422,88.421-23.017C124.228,69.11,145.119,60.857,192.5,60.857c47.379,0,68.271,8.253,104.079,24.067
		c35.308,15.595,57.545,23.017,88.421,23.017v-1c-30.696,0-52.84-7.395-88.017-22.931C261.048,68.14,240.081,59.857,192.5,59.857z"
		/>
	<path d="M192.5,50.904c-47.584,0-68.551,8.281-104.483,24.152C52.838,90.594,30.694,97.988,0,97.988v1
		c30.874,0,53.111-7.422,88.421-23.018c35.806-15.814,56.696-24.066,104.079-24.066c47.381,0,68.272,8.252,104.079,24.066
		c35.31,15.596,57.547,23.018,88.421,23.018v-1c-30.694,0-52.838-7.395-88.017-22.932C261.05,59.186,240.083,50.904,192.5,50.904z"
		/>
	<path d="M192.5,41.95c-47.582,0-68.549,8.282-104.483,24.153C52.84,81.64,30.696,89.034,0,89.034v1
		c30.876,0,53.113-7.422,88.421-23.017C124.228,51.203,145.119,42.95,192.5,42.95c47.379,0,68.271,8.253,104.079,24.067
		C331.887,82.612,354.124,90.034,385,90.034v-1c-30.696,0-52.84-7.395-88.017-22.931C261.048,50.232,240.081,41.95,192.5,41.95z"/>
	<path d="M192.5,32.997c-47.582,0-68.549,8.282-104.483,24.153C52.84,72.687,30.696,80.081,0,80.081v1
		c30.876,0,53.113-7.422,88.421-23.017C124.228,42.25,145.119,33.997,192.5,33.997c47.379,0,68.271,8.253,104.079,24.067
		C331.887,73.659,354.124,81.081,385,81.081v-1c-30.696,0-52.84-7.395-88.017-22.931C261.048,41.279,240.081,32.997,192.5,32.997z"
		/>
	<path d="M192.5,24.043c-47.58,0-68.548,8.282-104.483,24.154C52.841,63.733,30.698,71.127,0,71.127v1
		c30.878,0,53.114-7.422,88.421-23.016c35.809-15.815,56.701-24.068,104.079-24.068c47.377,0,68.27,8.253,104.079,24.068
		C331.886,64.705,354.122,72.127,385,72.127v-1c-30.698,0-52.841-7.394-88.017-22.93C261.047,32.325,240.078,24.043,192.5,24.043z"
		/>
	<path d="M192.5,15.09c-47.582,0-68.549,8.282-104.483,24.153C52.84,54.779,30.696,62.174,0,62.174v1
		c30.876,0,53.113-7.422,88.421-23.017C124.228,24.343,145.119,16.09,192.5,16.09c47.379,0,68.271,8.253,104.079,24.067
		C331.887,55.752,354.124,63.174,385,63.174v-1c-30.696,0-52.84-7.395-88.017-22.931C261.048,23.372,240.081,15.09,192.5,15.09z"/>
	<path d="M192.5,6.137c-47.584,0-68.551,8.281-104.483,24.152C52.838,45.826,30.694,53.221,0,53.221v1
		c30.874,0,53.111-7.422,88.421-23.018C124.227,15.389,145.117,7.137,192.5,7.137c47.381,0,68.272,8.252,104.079,24.066
		c35.31,15.596,57.547,23.018,88.421,23.018v-1c-30.694,0-52.838-7.395-88.017-22.932C261.05,14.418,240.083,6.137,192.5,6.137z"/>
	<path d="M158.943,0h-7.18c-22.729,3.654-39.963,10.83-63.747,21.336C52.838,36.873,30.694,44.268,0,44.268v1
		c30.874,0,53.111-7.422,88.421-23.018C114.505,10.729,132.683,3.228,158.943,0z"/>
	<path d="M233.235,0h-7.18c26.261,3.228,44.439,10.729,70.523,22.25c35.31,15.596,57.547,23.018,88.421,23.018v-1
		c-30.694,0-52.838-7.395-88.017-22.932C273.198,10.83,255.965,3.654,233.235,0z"/>
	<path d="M267.095,0h-2.979c10.187,3.571,20.491,8.009,32.464,13.297C331.887,28.892,354.124,36.313,385,36.313v-1
		c-30.696,0-52.84-7.395-88.017-22.931C286.021,7.541,276.452,3.409,267.095,0z"/>
	<path d="M120.884,0h-2.979c-9.356,3.409-18.925,7.541-29.888,12.383C52.84,27.919,30.696,35.313,0,35.313v1
		c30.876,0,53.113-7.422,88.421-23.017C100.394,8.009,110.698,3.571,120.884,0z"/>
	<path d="M289.159,0h-2.516c3.199,1.378,6.498,2.825,9.936,4.344C331.886,19.938,354.122,27.359,385,27.359v-1
		c-30.698,0-52.841-7.394-88.017-22.93C294.294,2.242,291.697,1.103,289.159,0z"/>
	<path d="M98.356,0h-2.516c-2.539,1.103-5.136,2.242-7.824,3.43C52.841,18.966,30.698,26.359,0,26.359v1
		c30.878,0,53.114-7.422,88.421-23.016C91.858,2.825,95.157,1.378,98.356,0z"/>
	<path d="M307.221,0C336.612,12.447,357.344,18.406,385,18.406v-1c-26.801,0-47.083-5.637-75.208-17.406H307.221z"/>
	<path d="M75.207,0C47.083,11.77,26.801,17.406,0,17.406v1c27.656,0,48.388-5.959,77.779-18.406H75.207z"/>
	<path d="M51.601,0C34.313,5.688,18.75,8.453,0,8.453v1c19.897,0,36.211-3.088,54.743-9.453H51.601z"/>
	<path d="M330.257,0C348.789,6.365,365.103,9.453,385,9.453v-1c-18.75,0-34.313-2.765-51.601-8.453H330.257z"/>
	<path d="M0,0v0.5c4.597,0,8.999-0.168,13.284-0.5H0z"/>
	<path d="M385,0.5V0h-13.284C376.001,0.332,380.403,0.5,385,0.5z"/>
</g>
</svg>
